<?xml version="1.0" encoding="UTF-8" standalone="no"?>
<!-- Created with Inkscape (http://www.inkscape.org/) -->

<svg
   xmlns:dc="http://purl.org/dc/elements/1.1/"
   xmlns:cc="http://creativecommons.org/ns#"
   xmlns:rdf="http://www.w3.org/1999/02/22-rdf-syntax-ns#"
   xmlns:svg="http://www.w3.org/2000/svg"
   xmlns="http://www.w3.org/2000/svg"
   xmlns:sodipodi="http://sodipodi.sourceforge.net/DTD/sodipodi-0.dtd"
   xmlns:inkscape="http://www.inkscape.org/namespaces/inkscape"
   width="744.09448819"
   height="1052.3622047"
   id="svg3070"
   version="1.1"
   inkscape:version="0.48.4 r9939"
   sodipodi:docname="Nuovo documento 2">
  <defs
     id="defs3072" />
  <sodipodi:namedview
     id="base"
     pagecolor="#ffffff"
     bordercolor="#666666"
     borderopacity="1.0"
     inkscape:pageopacity="0.0"
     inkscape:pageshadow="2"
     inkscape:zoom="0.35"
     inkscape:cx="375"
     inkscape:cy="520"
     inkscape:document-units="px"
     inkscape:current-layer="layer1"
     showgrid="false"
     inkscape:window-width="1071"
     inkscape:window-height="578"
     inkscape:window-x="0"
     inkscape:window-y="25"
     inkscape:window-maximized="0" />
  <metadata
     id="metadata3075">
    <rdf:RDF>
      <cc:Work
         rdf:about="">
        <dc:format>image/svg+xml</dc:format>
        <dc:type
           rdf:resource="http://purl.org/dc/dcmitype/StillImage" />
        <dc:title></dc:title>
      </cc:Work>
    </rdf:RDF>
  </metadata>
  <g
     inkscape:label="Livello 1"
     inkscape:groupmode="layer"
     id="layer1">
    <rect
       style="color:#000000;fill:#e88600;fill-opacity:1;fill-rule:nonzero;stroke:#f1a135;stroke-width:6.00794268;stroke-linecap:round;stroke-linejoin:round;stroke-miterlimit:4;stroke-opacity:1;stroke-dasharray:none;stroke-dashoffset:0;marker:none;visibility:visible;display:inline;overflow:visible;enable-background:accumulate"
       id="rect3885-7-3"
       width="654.21924"
       height="654.38336"
       x="44.318958"
       y="156.59909"
       ry="55.172165"
       inkscape:export-filename="/mnt/Data/Libersoft/FirmaPiu/Grafica/fpiuviola.png"
       inkscape:export-xdpi="90"
       inkscape:export-ydpi="90" />
    <path
       style="fill:#783bac;fill-opacity:1;stroke:#783bac;stroke-width:5.95642853;stroke-linecap:butt;stroke-linejoin:miter;stroke-miterlimit:4;stroke-opacity:1;stroke-dasharray:none;display:inline"
       d="m 280.62237,163.45179 c -99.78744,0 -179.10327,76.79167 -179.10327,169.52807 0,0.29581 -0.002,0.64215 0,0.93764 l 119.4022,0 c -1.9e-4,-0.06 0,-0.12926 0,-0.18741 0,-30.91214 27.00183,-56.07176 60.26428,-56.07176 33.26251,0 60.26431,25.15962 60.26431,56.07176 0,0.0601 1.9e-4,0.12926 0,0.18741 l 120.51416,-1.14809 c 0.001,-0.2958 -0.003,0.29644 -0.003,9.5e-4 0,-92.7364 -81.55148,-169.31857 -181.3389,-169.31857 z m -179.10327,171.77845 0,117.95701 -51.440543,-0.18741 0.57486,117.18497 49.739253,0.0221 -0.18773,234.60134 119.9654,-0.56254 0.37551,-231.22582 120.15312,0 0,-65.2608 0,-54.38401 -120.15312,-0.37504 0.37548,-117.76951 -119.4022,0 z"
       id="path3059-2-0"
       inkscape:connector-curvature="0"
       sodipodi:nodetypes="ssccsssccssccccccccccccccc"
       inkscape:export-filename="/mnt/Data/Libersoft/FirmaPiu/Grafica/fpiuviola.png"
       inkscape:export-xdpi="90"
       inkscape:export-ydpi="90" />
    <path
       style="fill:#e3e1db;fill-opacity:1;stroke:#e3e1db;stroke-width:5.85154438px;stroke-linecap:butt;stroke-linejoin:miter;stroke-opacity:1;display:inline"
       d="m 343.43107,453.344 123.41888,0.31287 0.96194,-114.91497 54.82514,0.23734 53.23883,-0.13715 0.27938,114.41917 116.39605,0.19752 0.27938,119.25518 -116.6754,-0.10461 0,120.13827 -115.21078,0.59256 -0.20763,-120.90559 -117.62053,0.71796 0.24683,-57.19639 0,-44.74972 z"
       id="path3857-0-8"
       inkscape:connector-curvature="0"
       sodipodi:nodetypes="cccccccccccccccc"
       inkscape:export-filename="/mnt/Data/Libersoft/FirmaPiu/Grafica/fpiuviola.png"
       inkscape:export-xdpi="90"
       inkscape:export-ydpi="90" />
    <path
       style="fill:#e88600;fill-opacity:1;stroke:#e88600;stroke-width:6.10801792px;stroke-linecap:butt;stroke-linejoin:miter;stroke-opacity:1;display:inline"
       d="m 340.68171,448.96691 0,130.76178"
       id="path3887-8-8"
       inkscape:connector-curvature="0"
       sodipodi:nodetypes="cc"
       inkscape:export-filename="/mnt/Data/Libersoft/FirmaPiu/Grafica/fpiuviola.png"
       inkscape:export-xdpi="90"
       inkscape:export-ydpi="90" />
  </g>
</svg>
